<svg width="600" height="120" viewBox="0 0 600 120" fill="none" xmlns="http://www.w3.org/2000/svg">
  <defs>
    <!-- Fondo general -->
    <linearGradient id="bg" x1="0" y1="0" x2="600" y2="120" gradientUnits="userSpaceOnUse">
      <stop stop-color="#3a7bd5"/>
      <stop offset="1" stop-color="#00d2ff"/>
    </linearGradient>

    <!-- Degradado para título y acentos -->
    <linearGradient id="text" x1="0" y1="0" x2="600" y2="0" gradientUnits="userSpaceOnUse">
      <stop stop-color="#ffffff"/>
      <stop offset="1" stop-color="#e8f3ff"/>
    </linearGradient>

    <!-- Degradado del ícono -->
    <linearGradient id="iconGrad" x1="0" y1="0" x2="1" y2="1">
      <stop offset="0" stop-color="#7dd3fc"/>
      <stop offset="1" stop-color="#3b82f6"/>
    </linearGradient>

    <!-- Sombras suaves -->
    <filter id="shadow" x="-10" y="-10" width="620" height="140" filterUnits="userSpaceOnUse">
      <feDropShadow dx="0" dy="4" stdDeviation="4" flood-color="#000" flood-opacity="0.18"/>
    </filter>
    <filter id="iconShadow" x="0" y="0" width="200%" height="200%">
      <feOffset dx="0" dy="2" in="SourceAlpha"/>
      <feGaussianBlur stdDeviation="3" result="blur"/>
      <feColorMatrix type="matrix" values="0 0 0 0 0  0 0 0 0 0  0 0 0 0 0  0 0 0 0.20 0"/>
      <feMerge>
        <feMergeNode/>
        <feMergeNode in="SourceGraphic"/>
      </feMerge>
    </filter>

    <!-- Burbujas / bokeh -->
    <radialGradient id="bubbleGrad">
      <stop offset="0" stop-color="#FFFFFF" stop-opacity="0.45"/>
      <stop offset="0.55" stop-color="#FFFFFF" stop-opacity="0.18"/>
      <stop offset="1" stop-color="#FFFFFF" stop-opacity="0"/>
    </radialGradient>
    <filter id="bokehBlur" x="-50%" y="-50%" width="200%" height="200%">
      <feGaussianBlur stdDeviation="6"/>
    </filter>

    <!-- Brillos / destellos -->
    <radialGradient id="sparkleGrad">
      <stop offset="0" stop-color="#FFFFFF" stop-opacity="1"/>
      <stop offset="0.5" stop-color="#FFFFFF" stop-opacity="0.65"/>
      <stop offset="1" stop-color="#FFFFFF" stop-opacity="0"/>
    </radialGradient>
    <linearGradient id="shineGrad" x1="0" y1="0" x2="1" y2="1">
      <stop offset="0" stop-color="#FFFFFF" stop-opacity="0.12"/>
      <stop offset="0.5" stop-color="#FFFFFF" stop-opacity="0.04"/>
      <stop offset="1" stop-color="#FFFFFF" stop-opacity="0"/>
    </linearGradient>
  </defs>

  <!-- Fondo -->
  <rect width="600" height="120" rx="26" fill="url(#bg)"/>

  <!-- Capa de burbujas suaves (bokeh) -->
  <g opacity="0.75">
    <circle cx="520" cy="24" r="22" fill="url(#bubbleGrad)" filter="url(#bokehBlur)"/>
    <circle cx="560" cy="86" r="18" fill="url(#bubbleGrad)" filter="url(#bokehBlur)"/>
    <circle cx="72" cy="28" r="20" fill="url(#bubbleGrad)" filter="url(#bokehBlur)"/>
    <circle cx="108" cy="94" r="14" fill="url(#bubbleGrad)" filter="url(#bokehBlur)"/>
    <circle cx="300" cy="18" r="16" fill="url(#bubbleGrad)" filter="url(#bokehBlur)"/>
    <circle cx="360" cy="100" r="12" fill="url(#bubbleGrad)" filter="url(#bokehBlur)"/>
  </g>

  <!-- Destello diagonal sutil -->
  <g opacity="0.8" transform="rotate(-12 300 60)">
    <rect x="-40" y="18" width="680" height="28" rx="14" fill="url(#shineGrad)"/>
  </g>

  <!-- Ícono de chat estilizado (nuevo) -->
  <g transform="translate(36,28)" filter="url(#iconShadow)">
    <!-- Placa -->
    <rect x="0" y="0" width="64" height="64" rx="18" fill="#ffffff" fill-opacity="0.12" stroke="#ffffff" stroke-opacity="0.28"/>
    <!-- Burbuja -->
    <path d="M16 44V24c0-6.627 5.373-12 12-12h16c6.627 0 12 5.373 12 12v12c0 6.627-5.373 12-12 12H28l-12 8 0-12Z" fill="#ffffff"/>
    <!-- Puntos -->
    <circle cx="30" cy="34" r="3" fill="url(#iconGrad)"/>
    <circle cx="38" cy="34" r="3" fill="url(#iconGrad)"/>
    <circle cx="46" cy="34" r="3" fill="url(#iconGrad)"/>
    <!-- Escudo -->
    <g transform="translate(40,10)">
      <path d="M12 0l8 4v8c0 6-8 10-8 10S4 18 4 12V4l8-4z" fill="url(#iconGrad)"/>
      <path d="M8 11l3 3 5-5" stroke="#ffffff" stroke-width="2" stroke-linecap="round" stroke-linejoin="round" fill="none"/>
    </g>
  </g>

  <!-- Título y subtítulo alineados a la izquierda -->
  <text x="120" y="58" text-anchor="start" font-family="Segoe UI, Arial, sans-serif" font-size="46" font-weight="800" fill="url(#text)" filter="url(#shadow)">ChatGuard</text>
  <text x="120" y="86" text-anchor="start" font-family="Segoe UI, Arial, sans-serif" font-size="20" fill="#f8faff" opacity="0.95">Bot de moderación profesional para comunidades</text>

  <!-- Detalle decorativo sutil -->
  <rect x="120" y="94" width="330" height="6" rx="3" fill="#ffffff" fill-opacity="0.10"/>
</svg>
